<svg id="visual" viewBox="0 0 900 600" width="900" height="600" xmlns="http://www.w3.org/2000/svg" xmlns:xlink="http://www.w3.org/1999/xlink" version="1.1"><rect x="0" y="0" width="900" height="600" fill="#0e0d1e"></rect><defs><linearGradient id="grad1_0" x1="33.3%" y1="100%" x2="100%" y2="0%"><stop offset="20%" stop-color="#0e0d1e" stop-opacity="1"></stop><stop offset="80%" stop-color="#0e0d1e" stop-opacity="1"></stop></linearGradient></defs><defs><linearGradient id="grad2_0" x1="0%" y1="100%" x2="66.7%" y2="0%"><stop offset="20%" stop-color="#0e0d1e" stop-opacity="1"></stop><stop offset="80%" stop-color="#0e0d1e" stop-opacity="1"></stop></linearGradient></defs><g transform="translate(900, 600)"><path d="M-270.4 0C-261.1 -33.1 -251.8 -66.2 -240.2 -99.5C-228.6 -132.8 -214.6 -166.1 -191.2 -191.2C-167.8 -216.3 -134.9 -233 -101.4 -244.8C-68 -256.6 -34 -263.5 0 -270.4L0 0Z" fill="#151e98"></path></g><g transform="translate(0, 0)"><path d="M270.4 0C263.5 33.9 256.6 67.8 244.8 101.4C233.1 135.1 216.6 168.5 191.2 191.2C165.9 214 131.7 226 98.3 237.4C65 248.9 32.5 259.6 0 270.4L0 0Z" fill="#151e98"></path></g></svg>